<svg xmlns="http://www.w3.org/2000/svg" xmlns:xlink="http://www.w3.org/1999/xlink" width="368.923" height="232.93" viewBox="0 0 368.923 232.93">
  <defs>
    <linearGradient id="linear-gradient" x1="0.117" y1="0.5" x2="1.117" y2="0.5" gradientUnits="objectBoundingBox">
      <stop offset="0" stop-color="#6e6e6f"/>
      <stop offset="0.522" stop-color="#fff"/>
      <stop offset="0.908" stop-color="#6e6e6f"/>
    </linearGradient>
    <linearGradient id="linear-gradient-2" x1="0.268" y1="0.164" x2="0.75" y2="0.982" gradientUnits="objectBoundingBox">
      <stop offset="0" stop-color="#fff"/>
      <stop offset="0.524" stop-color="#6e6e6f"/>
      <stop offset="0.632" stop-color="#959596"/>
      <stop offset="0.803" stop-color="#cecece"/>
      <stop offset="0.929" stop-color="#f1f1f1"/>
      <stop offset="0.997" stop-color="#fff"/>
    </linearGradient>
    <linearGradient id="linear-gradient-3" x1="0.877" y1="-0.787" x2="0.66" y2="-0.261" gradientUnits="objectBoundingBox">
      <stop offset="0" stop-color="#6e6e6f"/>
      <stop offset="1" stop-color="#fff"/>
    </linearGradient>
    <linearGradient id="linear-gradient-4" x1="0.522" y1="0.587" x2="0.243" y2="0.822" gradientUnits="objectBoundingBox">
      <stop offset="0" stop-color="#fff"/>
      <stop offset="1" stop-color="#6e6e6f"/>
    </linearGradient>
    <linearGradient id="linear-gradient-5" x1="0.211" y1="0.684" x2="0.57" y2="0.313" xlink:href="#linear-gradient-3"/>
    <linearGradient id="linear-gradient-6" x1="0.823" y1="0.698" x2="0.357" y2="0.437" xlink:href="#linear-gradient-3"/>
    <linearGradient id="linear-gradient-7" x1="0.573" y1="0.373" x2="0.362" y2="0.605" xlink:href="#linear-gradient-4"/>
    <linearGradient id="linear-gradient-8" x1="0.041" y1="0.366" x2="0.532" y2="0.662" xlink:href="#linear-gradient-4"/>
    <linearGradient id="linear-gradient-9" x1="0.31" y1="0.724" x2="0.646" y2="0.479" xlink:href="#linear-gradient-3"/>
  </defs>
  <g id="Group_28" data-name="Group 28" transform="translate(-909.946 -593.482)">
    <g id="Group_25" data-name="Group 25">
      <path id="Path_143" data-name="Path 143" d="M1278.228,718.364c-3.231,26.368-17.6,43.513-22.9,49.667-15.59,18.1-33.4,25.439-41.6,28.7-23.388,9.308-43.493,8.282-57.407,7.418-17.222-1.071-34.141-4.515-50-11.469-20-8.778-37.217-23.143-53.349-37.611-13.617-12.223-27.5-24.594-44.681-31.548-7.927-3.212-19.512-7.759-34.831-7.095-8.45.368-25.865,1.116-36.121,13.868a28,28,0,0,0-6.644,16.687c-.458,13.719,11.12,23.33,11.475,23.62a31.593,31.593,0,0,1-13.216-13.216c-7.025-13.887.051-28.4,1.612-31.606,9.256-18.99,30.684-24.537,38.056-26.446,18.345-4.747,37.676-1.826,54.679,6.153,17.538,8.224,31.58,22.2,45.512,35.322,15.558,14.648,31.271,29.619,49.951,40.275a112.526,112.526,0,0,0,55.478,14.642,104.521,104.521,0,0,0,52.711-13.507c35.186-20.247,55.614-65.74,46.106-102.4a70.754,70.754,0,0,0-7.405-17.9l.5-.349C1272.849,673.3,1281.273,693.518,1278.228,718.364Z" fill="url(#linear-gradient)"/>
      <path id="Path_144" data-name="Path 144" d="M933.465,741.907a26.922,26.922,0,0,1,5.019-8.785,37.365,37.365,0,0,1,7.632-6.791,62.691,62.691,0,0,1,9.017-4.865l2.4-.919,1.2-.459c.405-.143.821-.251,1.231-.379l2.473-.736c.834-.21,1.68-.374,2.521-.563l1.264-.274c.424-.077.853-.121,1.28-.183l2.566-.346,2.585-.16c.431-.022.863-.061,1.294-.07l1.295.013a56.2,56.2,0,0,1,10.3.968l2.536.521c.849.167,1.671.426,2.506.641,1.679.412,3.3,1,4.939,1.524a90.392,90.392,0,0,1,9.5,4,126.242,126.242,0,0,1,17.589,10.521c5.584,3.915,10.912,8.146,16.131,12.477s10.245,8.861,15.293,13.32c1.257,1.127,2.527,2.216,3.8,3.293l3.816,3.25c1.27,1.085,2.608,2.084,3.909,3.131,1.315,1.028,2.606,2.088,3.94,3.09a195.841,195.841,0,0,0,33.981,20.947c1.475.777,3.019,1.4,4.541,2.071l4.576,1.994,4.676,1.742c1.561.573,3.1,1.2,4.706,1.653,3.181.967,6.335,2.046,9.584,2.766l4.841,1.217,4.905.925c3.258.71,6.578,1,9.881,1.438,1.649.253,3.316.3,4.978.409l4.991.32c1.666.031,3.334.01,5,.019l2.5,0,1.253,0c.417-.009.833-.049,1.25-.072l5-.32,2.5-.16,2.505-.245a124.017,124.017,0,0,0,19.69-3.849c3.246-.871,6.47-1.84,9.681-2.859s6.418-2.068,9.618-3.133c-3.121,1.278-6.244,2.555-9.393,3.776s-6.333,2.355-9.548,3.415a120.505,120.505,0,0,1-19.774,4.85c-.841.125-1.675.245-2.517.348l-2.537.255-5.079.51c-.424.039-.847.094-1.272.119l-1.275.046-2.553.09c-1.7.054-3.405.136-5.109.165l-5.112-.157c-1.7-.067-3.414-.073-5.108-.286-3.391-.359-6.808-.571-10.165-1.209l-5.059-.818-5-1.118c-3.356-.674-6.606-1.737-9.891-2.678-1.654-.441-3.247-1.058-4.86-1.62l-4.83-1.716-4.728-1.97c-1.573-.665-3.17-1.281-4.693-2.052a196.28,196.28,0,0,1-34.9-21.225c-1.356-1.03-2.667-2.117-4-3.172-1.32-1.074-2.68-2.1-3.967-3.213L1054.939,768c-1.295-1.107-2.579-2.219-3.826-3.35-5.024-4.508-10.042-8.978-15.12-13.36-10.157-8.723-20.783-16.956-32.539-23.114a87.326,87.326,0,0,0-9.033-4.086c-1.557-.54-3.1-1.147-4.685-1.579-.793-.222-1.573-.5-2.373-.687l-2.4-.584a53.5,53.5,0,0,0-9.766-1.274l-1.233-.057c-.411-.007-.821.016-1.232.022l-2.468.063-2.456.243c-.41.044-.822.071-1.229.13l-1.218.208c-.811.144-1.629.263-2.438.426l-2.405.6c-.4.1-.806.189-1.2.309l-1.179.39-2.361.78-2.3.955a23.623,23.623,0,0,0-2.275,1.02c-1.48.759-3.006,1.45-4.416,2.322a36.614,36.614,0,0,0-7.8,6.194A26.574,26.574,0,0,0,933.465,741.907Z" fill="url(#linear-gradient-2)"/>
      <path id="Path_145" data-name="Path 145" d="M1060.332,804.15a157.427,157.427,0,0,1-23.3,9.635,153.461,153.461,0,0,1-24.684,5.659c-2.09.361-4.2.546-6.308.77l-3.168.326-3.194.231c-4.26.276-8.527.425-12.792.414a129.039,129.039,0,0,1-25.413-2.38,78.872,78.872,0,0,1-23.92-8.728,59.129,59.129,0,0,1-18.922-17.213A59.946,59.946,0,0,0,936.7,811.447a81.311,81.311,0,0,0,24.03,10.5,132.993,132.993,0,0,0,25.988,4.076c4.379.284,8.765.4,13.148.391l3.287-.032,3.3-.132c2.2-.1,4.414-.155,6.609-.392a160.794,160.794,0,0,0,26.177-4.316,166.323,166.323,0,0,0,25.206-8.633,169.944,169.944,0,0,0,24.536-13.158q-5.379-2.928-10.733-6.289A159.3,159.3,0,0,1,1060.332,804.15Z" fill="url(#linear-gradient-3)"/>
      <path id="Path_146" data-name="Path 146" d="M1104.073,728.039c0-39.659-38.362-50.306-38.379-50.311,1.515.42,4.517-.708,5.993-1a117.5,117.5,0,0,0,14.777-3.932c12.57-4.245,25.356-10.883,33.3-21.868,7.229-10,8.466-24.147.31-34.016-6.632-8.026-17.219-11.69-27.806-13.464-1.142-.191-2.284-.358-3.421-.508l3.3,1.255c17.666,9.039,27.117,25.787,12.9,42.647-16,18.98-43.582,29.8-67.083,36.046,0,0,14.344-2.656,26.5,6.2a34.923,34.923,0,0,1,11.236,14.115c5.476,12.014,2.677,23.575,1.612,28.058a44.218,44.218,0,0,1-2.7,7.91c7.191,6.771,14.512,13.62,22.174,20.01C1106.4,741.7,1104.073,728.039,1104.073,728.039Z" fill="url(#linear-gradient-4)"/>
      <path id="Path_147" data-name="Path 147" d="M1120.011,757.852a78.627,78.627,0,0,0,2.519-14.972,73.856,73.856,0,0,0-.706-15.075,62.526,62.526,0,0,0-11.034-27.356,49.65,49.65,0,0,0-10.292-10.388,50.2,50.2,0,0,0-12.658-6.851,49.416,49.416,0,0,1,11.622,8.087,47.267,47.267,0,0,1,8.634,10.925,57.7,57.7,0,0,1,7.312,26.253,66.612,66.612,0,0,1-.886,13.472,69.765,69.765,0,0,1-3.706,12.894,74.987,74.987,0,0,1-5.5,11.134q4.54,3.42,9.278,6.517A86.211,86.211,0,0,0,1120.011,757.852Z" fill="url(#linear-gradient-5)"/>
      <path id="Path_148" data-name="Path 148" d="M1024.735,680.953a124.245,124.245,0,0,0,36.585-15.04c9.364-5.846,19.4-12.4,24.892-22.3,9.237-16.648-9.763-24.95-23.593-24.794a87.289,87.289,0,0,0-42.988,12.421,121.591,121.591,0,0,0-15.626,11.283c-1.171.993-5.333,3.593-5.716,5.206,6.127-25.8-13.864-44.825-13.867-44.828,4.271,4.063,12.571,3.624,18.036,3.871,13.117.594,26-.878,38.992-2.488,12.855-1.594,25.9-3.709,38.627-.379,13.5,3.533,25.277,12.133,26.253,27.054,2.258,34.508-99.333,55.149-99.333,55.149Z" fill="url(#linear-gradient-6)"/>
      <path id="Path_149" data-name="Path 149" d="M1266.943,686.631c-8.447-42.41-50.386-72.922-93.413-64.867-20.092,3.762-38.936,16.287-48.639,34.709a56.68,56.68,0,0,0-6.3,33.107c-.845-6.8,6.113-17.882,9.822-23.332a66.359,66.359,0,0,1,18.12-17.855c27.218-18.08,63.421-13.138,86.223,9.984,24.875,25.224,28.206,70.535,2.9,96.659-19.748,20.382-52.529,26.118-79.33,19.445a89.6,89.6,0,0,1-31.449-14.849,91.53,91.53,0,0,1-5.073,13.892c.765.429,1.539.857,2.336,1.279a108.655,108.655,0,0,0,83.792,7.051C1245.886,768.795,1275.483,729.515,1266.943,686.631Z" fill="url(#linear-gradient-7)"/>
      <path id="Path_150" data-name="Path 150" d="M1060.151,780.706c-.457-.368-.915-.736-1.376-1.1l-.07-.056c-.444-.361-.892-.716-1.341-1.071-.9-.716-1.836-1.456-2.773-2.265l-3.859-3.321c-1.164-.995-2.557-2.2-3.951-3.46l-.287-.256a150.955,150.955,0,0,1-24.339,12.722c-25.935,10.91-50.657,11.059-68.067,8.995a55.359,55.359,0,0,1-18.043-8.35,50.032,50.032,0,0,1-19.675-31.938,48,48,0,0,1,2.139-24.048A44.5,44.5,0,0,1,935.4,705.141a42.2,42.2,0,0,0-17.2,14.59c-10.025,14.476-8.462,30.272-7.63,37.979a57.906,57.906,0,0,0,22.953,40.148c14.632,10.755,35.405,15.037,53.16,16.292,15.13,1.069,30.2-1.589,43.806-5.778q3.716-1.143,7.275-2.427a161.154,161.154,0,0,0,32.391-17.837q-3.643-2.524-7.254-5.238C1061.93,782.136,1061.026,781.409,1060.151,780.706Z" fill="url(#linear-gradient-8)"/>
      <path id="Path_151" data-name="Path 151" d="M1237.772,671.621a63.934,63.934,0,0,0-26.654-25.041,56.435,56.435,0,0,0-9.249-3.609c-31.676-9.165-71.236,9.387-80.028,42.5,1.489-5.608,6.742-11.506,10.436-15.668a69.8,69.8,0,0,1,37.1-21.774c25.745-5.706,54.919,4.129,69.417,27.121l1.972,3.193Z" fill="url(#linear-gradient-9)"/>
    </g>
    <g id="Group_26" data-name="Group 26">
      <path id="Path_152" data-name="Path 152" d="M1127.145,699.086a2.428,2.428,0,0,1-1.1-.238,2.088,2.088,0,0,1-1.219-1.815q0-1.517,2.038-3.346a24.2,24.2,0,0,1,5.428-3.51,45.858,45.858,0,0,1,7.437-2.87,35.606,35.606,0,0,1,7.763-1.428,7.6,7.6,0,0,1,5.577,2.067,8.648,8.648,0,0,1,2.335,5.845,11.387,11.387,0,0,1-.758,3.912,24.3,24.3,0,0,1-1.978,4.1,46.1,46.1,0,0,1-2.558,3.838q-1.34,1.8-3.3,4.3-2.29,2.914-3.212,4.253a1.427,1.427,0,0,0-.3.685c0,.079.059.118.178.118a1.667,1.667,0,0,0,.67-.312,5.348,5.348,0,0,0,.907-.728q9.192-9.489,16.017-13.966t10.962-4.477a4.817,4.817,0,0,1,3.956,1.636,6.792,6.792,0,0,1,1.338,4.432,18.616,18.616,0,0,1-1.011,5.682q-1.1,3.272-3.183,9.072-1.933,5.295-2.766,7.942a14.845,14.845,0,0,0-.833,4.1,2.009,2.009,0,0,0,.238,1.1,1.683,1.683,0,0,1,.327.863q0,.922-1.457.922a7.713,7.713,0,0,1-1.547-.178,8.275,8.275,0,0,1-4.922-2.841,8.144,8.144,0,0,1-1.533-5.042,17.813,17.813,0,0,1,.551-4.194,35.079,35.079,0,0,1,1.472-4.6q.922-2.334,1.77-4.194t2.3-4.982q1.637-3.271,2.142-4.491a4.8,4.8,0,0,0,.476-1.785q0-.774-.8-.774-1.457,0-5.442,2.945a104.238,104.238,0,0,0-9.014,7.645q-5.026,4.7-9.771,9.935a99.875,99.875,0,0,0-7.689,9.429,4.055,4.055,0,0,0-.417,1.041q-.179.863-.535.863a1.487,1.487,0,0,1-.684-.238,9.555,9.555,0,0,1-3.228-3.064,6.942,6.942,0,0,1-1.026-3.659,10.3,10.3,0,0,1,1.279-4.729,62.825,62.825,0,0,1,3.734-6.024q2.214-3.2,5.517-7.629,4.521-6.039,6.648-9.355t2.127-5.221q0-1.992-2.736-1.992a17.017,17.017,0,0,0-3.54.475q-11.868,2.738-15.587,9.013a1.24,1.24,0,0,0-.208.565q0,.357.446.357a2.365,2.365,0,0,0,.729-.119q.372-.119.55-.178l-.119.059A5.8,5.8,0,0,1,1127.145,699.086Z" fill="#fff"/>
      <path id="Path_153" data-name="Path 153" d="M1194.816,705.064a3.157,3.157,0,0,1,2.261,1.042,11.379,11.379,0,0,1,2.082,3.42,1.069,1.069,0,0,1,.178.536c0,.278-.148.416-.446.416a1.019,1.019,0,0,1-.773-.416,1.645,1.645,0,0,0-1.339-.536,8.872,8.872,0,0,0-3.659,1.116,28.974,28.974,0,0,0-4.669,2.945,36.725,36.725,0,0,0-4.358,3.866,15.5,15.5,0,0,0-2.811,3.823,2.051,2.051,0,0,0-.238.922c0,.516.209.773.624.773a2.345,2.345,0,0,0,1.28-.654q1.159-.922,3.391-2.885,3.36-2.856,5.369-4.433a14.269,14.269,0,0,1,2.989-1.963,3.426,3.426,0,0,1,1.22-.238,2.555,2.555,0,0,1,2.126,1.012,3.549,3.549,0,0,1,.789,2.231,3.021,3.021,0,0,1-.119.832,6.655,6.655,0,0,1-.729,1.622l-1.532,2.6q-1.013,1.757-1.562,2.8a17.043,17.043,0,0,0-.847,1.814,1.925,1.925,0,0,0-.149.684q0,.714.506.714a1.033,1.033,0,0,0,.595-.3q.8-.594,2.022-1.7t2.529-2.35q1.308-1.25,2.558-2.528t1.963-2.142c.376-.436.7-.655.981-.655.159,0,.239.1.239.3a1.061,1.061,0,0,1-.179.535,21.5,21.5,0,0,1-1.606,1.934q-1.131,1.25-2.618,2.737t-2.855,2.736q-1.37,1.25-2.35,2.053a3.171,3.171,0,0,1-2.023.8,2.829,2.829,0,0,1-2.246-1.071,4.56,4.56,0,0,1-.907-3.034,14.038,14.038,0,0,1,2.439-6.991,1.741,1.741,0,0,0,.3-.743.21.21,0,0,0-.237-.238,1.156,1.156,0,0,0-.446.119,13.644,13.644,0,0,0-3.034,2.439q-1.518,1.578-3.838,4.313a48.575,48.575,0,0,1-5.235,5.622,2.915,2.915,0,0,1-1.9.714,3.727,3.727,0,0,1-2.886-1.606,5.44,5.44,0,0,1-1.308-3.51,4.215,4.215,0,0,1,.3-1.577,23.451,23.451,0,0,1,3.51-5.815,38.927,38.927,0,0,1,4.938-5.116,52.028,52.028,0,0,1,5.086-3.9,33.3,33.3,0,0,1,3.956-2.335A6.547,6.547,0,0,1,1194.816,705.064Zm10.114-8.893a.2.2,0,0,1,.148-.06c.317,0,.456.1.417.3a.68.68,0,0,1-.268.3,42,42,0,0,1-6.321,4.819,9.358,9.358,0,0,1-4.239,1.606,3.915,3.915,0,0,1-3.019-1.532q-1.323-1.531-1.145-5.607.03-.476.416-.476c.159,0,.337.179.536.536a4.609,4.609,0,0,0,1.934,3.093,4.768,4.768,0,0,0,2.781.744,11.148,11.148,0,0,0,3-.669,37.284,37.284,0,0,0,5.637-3.049Z" fill="#fff"/>
      <path id="Path_154" data-name="Path 154" d="M1209.867,705.541c0-.238.247-.358.743-.358a1.828,1.828,0,0,1,1.533.848,3.832,3.832,0,0,1,.61,2.276,9.925,9.925,0,0,1-1.488,4.848,2.889,2.889,0,0,0-.357.863c0,.079.02.119.059.119q.359,0,3.361-2.677a11.63,11.63,0,0,1,2.975-2.038,6.656,6.656,0,0,1,2.737-.7,2.714,2.714,0,0,1,2.008.729,3.064,3.064,0,0,1,.728,2.246,10.519,10.519,0,0,1-.594,3.123,2.235,2.235,0,0,0-.12.3,4.652,4.652,0,0,0-.118.654c0,.059.019.089.059.089q.118,0,.595-.446a43.936,43.936,0,0,1,7.2-5.607,10.646,10.646,0,0,1,5-1.77,2.779,2.779,0,0,1,2.364,1.041,4.525,4.525,0,0,1,.789,2.8,12.385,12.385,0,0,1-1.458,5.444q-1.7,3.39-2.513,5.562a10.354,10.354,0,0,0-.819,3.212q0,.834.6.833a4.93,4.93,0,0,0,2.558-1.427,54.881,54.881,0,0,0,4.134-3.986q1.9-2.082,2.5-2.082c.138,0,.208.04.208.118q0,.686-1.785,2.5-.238.269-.713.8a59.151,59.151,0,0,1-4.923,4.789,5.183,5.183,0,0,1-3.258,1.309,5.083,5.083,0,0,1-1.279-.178,5.926,5.926,0,0,1-3.048-1.755,4.1,4.1,0,0,1-.908-2.648,8.893,8.893,0,0,1,.982-3.762q.981-2.068,2.974-5.369l.357-.595a8.682,8.682,0,0,0,1.488-3.54q0-.684-.625-.684-.981,0-3.228,1.621a39.745,39.745,0,0,0-4.863,4.268,50.089,50.089,0,0,0-4.878,5.756,27.054,27.054,0,0,0-3.361,5.9.612.612,0,0,1-.6.417,2.138,2.138,0,0,1-1.2-.446,3.134,3.134,0,0,1-1-1.131,5.57,5.57,0,0,1-.743-2.855,9.911,9.911,0,0,1,1.1-4.3A26.472,26.472,0,0,1,1216.59,715a14.893,14.893,0,0,0,1.382-2.171,4.027,4.027,0,0,0,.55-1.606q0-.475-.415-.476a2.034,2.034,0,0,0-.685.178,12.223,12.223,0,0,0-3.495,2.663q-2.157,2.127-4.566,4.967t-4.179,5.369a24.89,24.89,0,0,0-2.246,3.629c-.118.238-.2.357-.238.357a1.221,1.221,0,0,1-.446-.178l-.238-.179a3.36,3.36,0,0,1-1.4-2.945,8.5,8.5,0,0,1,.639-3,26.653,26.653,0,0,1,1.651-3.465q1.011-1.8,2.1-3.451t2.484-3.644q1.428-2.022,2.127-3.153a3.919,3.919,0,0,0,.7-1.547l-.06-.118v-.06A.816.816,0,0,1,1209.867,705.541Z" fill="#fff"/>
    </g>
    <g id="Group_27" data-name="Group 27">
      <path id="Path_155" data-name="Path 155" d="M1137.028,611.391l3.161,5.585,5.413-3.063-3.161-5.586,3.278-1.855,8.225,14.536-3.277,1.854-3.442-6.081-5.413,3.063,3.442,6.082-3.3,1.867-8.226-14.535Z" fill="#fff"/>
      <path id="Path_156" data-name="Path 156" d="M1165.712,596.3a5.246,5.246,0,0,1,1.209,2.038,2.555,2.555,0,0,1-1.724,3.37l-.388.173,2.2,7.026c1.54,4.92-.211,8.039-4.374,9.342-4.022,1.259-7.083-.224-8.675-5.31l-2.784-8.894,3.619-1.133,2.873,9.178c.859,2.744,2.336,3.814,4.182,3.237,1.892-.593,2.518-2.243,1.637-5.058l-2.872-9.179,2.743-.858c.971-.3,1.134-.693.942-1.308a3.24,3.24,0,0,0-.993-1.429Z" fill="#fff"/>
      <path id="Path_157" data-name="Path 157" d="M1186.761,594.845a5.583,5.583,0,0,1,.826,2.463,2.487,2.487,0,0,1-2.339,2.955,9.455,9.455,0,0,1,1.855,4.957c.506,5.454-2.494,9.069-7.356,9.521-4.937.458-8.171-3-8.611-7.739-.463-4.986,2.375-9.009,7.287-9.465a9.775,9.775,0,0,1,3.081.211,9.761,9.761,0,0,0,2.524.637c.617-.057.884-.405.822-1.072a3.689,3.689,0,0,0-.711-1.751Zm-3.621,10.867c-.277-2.986-1.947-5.42-4.539-5.18-2.567.239-3.787,2.916-3.5,6,.266,3.138,2.023,5.439,4.566,5.2S1183.441,608.945,1183.14,605.712Zm-.737-12.23-2.729,3.316-3.012.28,1.791-3.229Z" fill="#fff"/>
      <path id="Path_158" data-name="Path 158" d="M1189.56,613.84l1.835-16.6,4.385.485,2.776,6.465a48.259,48.259,0,0,1,2.081,5.99l.074.008a61.981,61.981,0,0,1,.445-6.957l.537-4.853,3.448.381-1.835,16.6-3.941-.436-2.84-6.8a61.961,61.961,0,0,1-2.234-6.182l-.077.017c-.144,2.2-.353,4.549-.653,7.259l-.552,5Z" fill="#fff"/>
      <path id="Path_159" data-name="Path 159" d="M1219.3,619.317a18.687,18.687,0,0,1-5.6-.764c-2.91-.909-4.786-2.3-5.809-4.178a8.08,8.08,0,0,1-.436-6.5c1.679-5.291,6.481-7.114,11.709-5.481a11.518,11.518,0,0,1,4.18,2.163l-1.66,2.65a9.24,9.24,0,0,0-3.5-1.847c-3-.939-5.807.055-6.886,3.509-1.028,3.288.425,5.871,3.381,6.8a5.05,5.05,0,0,0,1.848.317l1.043-3.335-2.46-.769.879-2.815,5.937,1.855Z" fill="#fff"/>
      <path id="Path_160" data-name="Path 160" d="M1229.264,613.593l1.505.91,3.386-5.6a33.433,33.433,0,0,1,4.561,2.323c2.693,1.629,4.193,3.173,4.943,5.046a7.527,7.527,0,0,1-.9,6.9c-1.68,2.778-3.81,4.1-5.894,4.43-2.262.34-4.924-.43-7.724-2.122a32.777,32.777,0,0,1-3.54-2.431l3.642-6.023-1.506-.91Zm6.045,7.1-2.843-1.719-2.2,3.648a10.863,10.863,0,0,0,1.1.722c2.969,1.8,5.806,1.368,7.922-2.132,1.872-3.1,1.039-5.6-1.76-7.291a8.3,8.3,0,0,0-1.541-.758l-1.987,3.288,2.842,1.718Z" fill="#fff"/>
      <path id="Path_161" data-name="Path 161" d="M1251.729,633.005l-4.683-3.983-2.569,3.021,5.23,4.449-2.008,2.359-8.118-6.906,10.825-12.724,7.853,6.681-2.007,2.36-4.965-4.224-2.249,2.643,4.682,3.983Zm6.215-12.546-.258,3.784-1.869-1.59.182-1.9-.039-.032-1.842.482-1.831-1.557,3.656-.893Zm5.98,2.419h-4.361l-1.378-1.172,3.266-.932Z" fill="#fff"/>
      <path id="Path_162" data-name="Path 162" d="M1249.13,640.14l12.7-10.857,2.867,3.354-2.4,6.617a48.4,48.4,0,0,1-2.581,5.794l.048.056a62.233,62.233,0,0,1,5.086-4.771l3.712-3.173,2.255,2.638-12.7,10.857-2.578-3.015,2.58-6.9a61.753,61.753,0,0,1,2.6-6.038l-.068-.041c-1.612,1.509-3.371,3.077-5.443,4.849l-3.825,3.27Z" fill="#fff"/>
    </g>
  </g>
</svg>
