<svg xmlns="http://www.w3.org/2000/svg" xmlns:xlink="http://www.w3.org/1999/xlink" width="189.846" height="143" viewBox="0 0 189.846 143">
  <defs>
    <clipPath id="clip-path">
      <path id="Path_12" data-name="Path 12" d="M982.718,89.367l33.006,88.476c7.817,2.026,14.378,4.161,19.146,5.861l-34.549-94.728Z" fill="none"/>
    </clipPath>
    <linearGradient id="linear-gradient" x1="59.629" y1="28.483" x2="59.641" y2="28.483" gradientUnits="objectBoundingBox">
      <stop offset="0" stop-color="#939598"/>
      <stop offset="0.226" stop-color="#999b9e"/>
      <stop offset="0.554" stop-color="#adaeb0"/>
      <stop offset="0.942" stop-color="#cccdce"/>
      <stop offset="1" stop-color="#d2d3d4"/>
    </linearGradient>
    <clipPath id="clip-path-2">
      <path id="Path_14" data-name="Path 14" d="M926.289,88.856l-24.339,67a92.513,92.513,0,0,0,17.088-2.244L935.3,103.79l12.939,35.819a68.279,68.279,0,0,0,11.018-11.425L944.911,88.856Z" fill="#f99e1d"/>
    </clipPath>
    <clipPath id="clip-path-3">
      <path id="Path_16" data-name="Path 16" d="M978.424,81.011c-10.4,75.055-64.178,79.631-92.115,76.738a99.771,99.771,0,0,1-16.9-3.092,126.806,126.806,0,0,0,30.822,5.937l-9.5,26.165c4.624-1.7,11.394-4.054,19.464-6.415a.576.576,0,0,1,.112-.034.069.069,0,0,1,.029-.009l3.431-10.512,3.064-9.385c11.08-1.077,22.52-4.288,32.4-11.331.65-.463,1.289-.941,1.915-1.423l8.52,23.59c2.158-.1,4.307-.159,6.438-.159q4.494,0,8.888.241l-12.658-34.71c1.144-1.442,2.216-2.916,3.219-4.409a72.457,72.457,0,0,0,3.737-6.251c6.1,16.377,12.6,33.886,17.228,46.356,6.995.813,13.647,1.976,19.775,3.295-7.249-19.8-20.172-55.108-28.067-76.75A106.112,106.112,0,0,0,979.429,72q-.4,4.671-1.005,9.011" fill="#f99e1d"/>
    </clipPath>
  </defs>
  <g id="Group_29" data-name="Group 29" transform="translate(-865.077 -72)">
    <g id="Group_24" data-name="Group 24">
      <g id="Group_23" data-name="Group 23" clip-path="url(#clip-path)">
        <rect id="Rectangle_11" data-name="Rectangle 11" width="52.152" height="94.728" transform="translate(982.718 88.976)" fill="url(#linear-gradient)"/>
      </g>
    </g>
    <g id="Group_26" data-name="Group 26">
      <path id="Path_13" data-name="Path 13" d="M926.289,88.856l-24.339,67a92.513,92.513,0,0,0,17.088-2.244L935.3,103.79l12.939,35.819a68.279,68.279,0,0,0,11.018-11.425L944.911,88.856Z" fill="#f99e1d"/>
      <g id="Group_25" data-name="Group 25" clip-path="url(#clip-path-2)">
        <rect id="Rectangle_12" data-name="Rectangle 12" width="57.306" height="67.004" transform="translate(901.95 88.856)" fill="#f99e1d"/>
      </g>
    </g>
    <g id="Group_28" data-name="Group 28">
      <path id="Path_15" data-name="Path 15" d="M978.424,81.011c-10.4,75.055-64.178,79.631-92.115,76.738a99.771,99.771,0,0,1-16.9-3.092,126.806,126.806,0,0,0,30.822,5.937l-9.5,26.165c4.624-1.7,11.394-4.054,19.464-6.415a.576.576,0,0,1,.112-.034.069.069,0,0,1,.029-.009l3.431-10.512,3.064-9.385c11.08-1.077,22.52-4.288,32.4-11.331.65-.463,1.289-.941,1.915-1.423l8.52,23.59c2.158-.1,4.307-.159,6.438-.159q4.494,0,8.888.241l-12.658-34.71c1.144-1.442,2.216-2.916,3.219-4.409a72.457,72.457,0,0,0,3.737-6.251c6.1,16.377,12.6,33.886,17.228,46.356,6.995.813,13.647,1.976,19.775,3.295-7.249-19.8-20.172-55.108-28.067-76.75A106.112,106.112,0,0,0,979.429,72q-.4,4.671-1.005,9.011" fill="#f99e1d"/>
      <g id="Group_27" data-name="Group 27" clip-path="url(#clip-path-3)">
        <rect id="Rectangle_13" data-name="Rectangle 13" width="136.886" height="114.759" transform="translate(869.405 72)" fill="#f99e1d"/>
      </g>
    </g>
    <path id="Path_17" data-name="Path 17" d="M879.147,214.626l-.6-5.562q-.184-1.537-.221-2.567a19.722,19.722,0,0,1-.627,2.733l-1.607,5.4h-3l-1.61-5.4a20.737,20.737,0,0,1-.633-2.733c-.039.576-.107,1.433-.212,2.567l-.611,5.562h-4.946l2.4-14.033h5.2l1,3.471c.013.038.058.2.133.489a24.329,24.329,0,0,1,.788,3.613h.075a25.124,25.124,0,0,1,.97-4.161l1.035-3.412h5.2l2.225,14.033Z" fill="#f99e1d"/>
    <path id="Path_18" data-name="Path 18" d="M891.313,209.528h2.11l-.442-1.591a14.785,14.785,0,0,1-.565-3.089h-.1a14.526,14.526,0,0,1-.576,3.089Zm-6.69,5.1,5.005-14.033h5.615l4.909,14.033h-5.417l-.449-1.763h-3.814l-.434,1.763Z" fill="#f99e1d"/>
    <rect id="Rectangle_14" data-name="Rectangle 14" width="5.13" height="14.034" transform="translate(901.022 200.593)" fill="#f99e1d"/>
    <path id="Path_19" data-name="Path 19" d="M920.6,209.528h2.107l-.444-1.591a14.9,14.9,0,0,1-.563-3.089h-.1a14.576,14.576,0,0,1-.575,3.089Zm-6.693,5.1,5-14.033h5.615l4.908,14.033h-5.416l-.448-1.763H919.76l-.433,1.763Z" fill="#a8aaac"/>
    <path id="Path_20" data-name="Path 20" d="M935.22,210.351a4.23,4.23,0,0,0,2.356-.574,2.448,2.448,0,0,0,.922-2.159q0-2.709-3.058-2.71h-.22Zm-5.006,4.275V200.593H934.3a12.731,12.731,0,0,1,5.559.883,6.88,6.88,0,0,1,0,12.269q-1.65.882-5.936.881Z" fill="#a8aaac"/>
    <path id="Path_21" data-name="Path 21" d="M948.752,214.626,943.4,200.593h5.452l1.495,5.081a15.839,15.839,0,0,1,.691,3.317h.1a20.429,20.429,0,0,1,.729-3.2l1.57-5.195h5.358l-5.34,14.033Z" fill="#a8aaac"/>
    <path id="Path_22" data-name="Path 22" d="M959.4,214.626V200.593h9.385V204.4h-4.438v1.352h4.024v3.6h-4.024v1.473H968.9v3.806Z" fill="#a8aaac"/>
    <path id="Path_23" data-name="Path 23" d="M975.887,204.206v2.742h.785q1.5,0,1.5-1.353a1.339,1.339,0,0,0-.373-1.034,1.582,1.582,0,0,0-1.124-.355Zm-4.944,10.42V200.593h6.342a6.685,6.685,0,0,1,4.015,1.056,4.231,4.231,0,0,1,1.652,3.67,4.038,4.038,0,0,1-.734,2.477,2.705,2.705,0,0,1-1.969,1.115L984,214.626h-5.656L975.887,210v4.63Z" fill="#a8aaac"/>
    <path id="Path_24" data-name="Path 24" d="M986.447,214.626v-9.442h-2.806v-4.592H994.3v4.592h-2.806v9.442Z" fill="#a8aaac"/>
    <rect id="Rectangle_15" data-name="Rectangle 15" width="5.126" height="14.034" transform="translate(996.025 200.593)" fill="#a8aaac"/>
    <path id="Path_25" data-name="Path 25" d="M1002.6,213.427l1.608-3.93a6.886,6.886,0,0,0,3.519,1.457c.741,0,1.11-.242,1.11-.73,0-.389-.495-.687-1.483-.9-.2-.039-.45-.088-.749-.155q-3.243-.783-3.24-3.795a4.577,4.577,0,0,1,1.767-3.8,6.377,6.377,0,0,1,4.1-1.293,9.728,9.728,0,0,1,4.736,1.274l-1.534,3.67a7.411,7.411,0,0,0-1.456-.825,3.951,3.951,0,0,0-1.431-.274c-.732,0-1.1.222-1.1.668,0,.391.7.734,2.1,1.035.134.031.307.074.517.125a4.013,4.013,0,0,1,2.263,1.323,3.647,3.647,0,0,1,.853,2.445,4.825,4.825,0,0,1-1.823,3.949,6.645,6.645,0,0,1-4.243,1.331,10.915,10.915,0,0,1-5.512-1.573" fill="#a8aaac"/>
    <rect id="Rectangle_16" data-name="Rectangle 16" width="5.127" height="14.034" transform="translate(1015.962 200.593)" fill="#a8aaac"/>
    <path id="Path_26" data-name="Path 26" d="M1023.81,214.626V200.593h4.947l4.359,7.344a16.193,16.193,0,0,1-.162-2.637v-4.707h4.872v14.033h-4.985l-4.314-7.286a13.137,13.137,0,0,1,.152,2.227v5.059Z" fill="#a8aaac"/>
    <path id="Path_27" data-name="Path 27" d="M1049.326,209.6h-2.194v-3.3h7.752c.014.167.026.382.039.641v.375a7.759,7.759,0,0,1-.9,3.968,7.322,7.322,0,0,1-2.778,2.755,7.772,7.772,0,0,1-3.844.954,7.353,7.353,0,0,1-5.369-2.089,7.6,7.6,0,0,1-.018-10.526,7.3,7.3,0,0,1,5.387-2.106,7.094,7.094,0,0,1,6.573,3.709l-4.494,1.665a2.179,2.179,0,0,0-1.994-1.157,2.124,2.124,0,0,0-1.888.985,3.812,3.812,0,0,0-.564,2.157,3.73,3.73,0,0,0,.582,2.2,2.3,2.3,0,0,0,1.986.931c1.035,0,1.609-.389,1.725-1.161" fill="#a8aaac"/>
  </g>
</svg>
