<svg xmlns="http://www.w3.org/2000/svg" xmlns:xlink="http://www.w3.org/1999/xlink" width="890.149" height="670.5" viewBox="0 0 890.149 670.5">
  <defs>
    <clipPath id="clip-path">
      <path id="Path_1" data-name="Path 1" d="M1011.171,2060.43l154.76,414.847c36.652,9.5,67.415,19.51,89.771,27.483L1093.707,2058.6Z" fill="none"/>
    </clipPath>
    <linearGradient id="linear-gradient" x1="-14.298" y1="1.75" x2="-14.287" y2="1.75" gradientUnits="objectBoundingBox">
      <stop offset="0" stop-color="#939598"/>
      <stop offset="0.226" stop-color="#999b9e"/>
      <stop offset="0.554" stop-color="#adaeb0"/>
      <stop offset="0.942" stop-color="#cccdce"/>
      <stop offset="1" stop-color="#d2d3d4"/>
    </linearGradient>
    <clipPath id="clip-path-2">
      <path id="Path_3" data-name="Path 3" d="M746.588,2058.033,632.466,2372.2a433.827,433.827,0,0,0,80.125-10.52l76.243-233.625L849.5,2296a320.246,320.246,0,0,0,51.66-53.567l-67.259-184.4Z" fill="#ffcd00"/>
    </clipPath>
    <clipPath id="clip-path-3">
      <path id="Path_5" data-name="Path 5" d="M991.036,2021.25c-48.778,351.917-300.918,373.374-431.906,359.813-47.646-4.934-79.262-14.5-79.262-14.5s63.051,22.452,144.521,27.84l-44.548,122.681c21.678-7.984,53.422-19.011,91.26-30.082a3.05,3.05,0,0,1,.528-.159.429.429,0,0,1,.133-.042l16.089-49.289,14.364-44c51.953-5.047,105.594-20.106,151.935-53.13,3.047-2.17,6.043-4.412,8.979-6.67l39.946,110.609c10.12-.471,20.2-.746,30.19-.746q21.069,0,41.674,1.129l-59.352-162.749c5.362-6.758,10.389-13.669,15.093-20.671a340.1,340.1,0,0,0,17.522-29.313c28.615,76.792,59.1,158.886,80.777,217.355,32.8,3.813,63.988,9.266,92.722,15.454-33.988-92.861-94.58-258.393-131.6-359.87,11.958-70.751,5.651-125.907,5.651-125.907q-1.876,21.9-4.715,42.25" fill="#ffcd00"/>
    </clipPath>
  </defs>
  <g id="Group_11" data-name="Group 11" transform="translate(-459.577 -1979)">
    <g id="Group_6" data-name="Group 6">
      <g id="Group_5" data-name="Group 5" clip-path="url(#clip-path)">
        <rect id="Rectangle_2" data-name="Rectangle 2" width="244.531" height="444.162" transform="translate(1011.171 2058.597)" fill="url(#linear-gradient)"/>
      </g>
    </g>
    <g id="Group_8" data-name="Group 8">
      <path id="Path_2" data-name="Path 2" d="M746.588,2058.033,632.466,2372.2a433.827,433.827,0,0,0,80.125-10.52l76.243-233.625L849.5,2296a320.246,320.246,0,0,0,51.66-53.567l-67.259-184.4Z" fill="#ffcd00"/>
      <g id="Group_7" data-name="Group 7" clip-path="url(#clip-path-2)">
        <rect id="Rectangle_3" data-name="Rectangle 3" width="268.697" height="314.17" transform="translate(632.466 2058.033)" fill="#ffcd00"/>
      </g>
    </g>
    <g id="Group_10" data-name="Group 10">
      <path id="Path_4" data-name="Path 4" d="M991.036,2021.25c-48.778,351.917-300.918,373.374-431.906,359.813-47.646-4.934-79.262-14.5-79.262-14.5s63.051,22.452,144.521,27.84l-44.548,122.681c21.678-7.984,53.422-19.011,91.26-30.082a3.05,3.05,0,0,1,.528-.159.429.429,0,0,1,.133-.042l16.089-49.289,14.364-44c51.953-5.047,105.594-20.106,151.935-53.13,3.047-2.17,6.043-4.412,8.979-6.67l39.946,110.609c10.12-.471,20.2-.746,30.19-.746q21.069,0,41.674,1.129l-59.352-162.749c5.362-6.758,10.389-13.669,15.093-20.671a340.1,340.1,0,0,0,17.522-29.313c28.615,76.792,59.1,158.886,80.777,217.355,32.8,3.813,63.988,9.266,92.722,15.454-33.988-92.861-94.58-258.393-131.6-359.87,11.958-70.751,5.651-125.907,5.651-125.907q-1.876,21.9-4.715,42.25" fill="#ffcd00"/>
      <g id="Group_9" data-name="Group 9" clip-path="url(#clip-path-3)">
        <rect id="Rectangle_4" data-name="Rectangle 4" width="641.833" height="538.084" transform="translate(479.868 1979)" fill="#ffcd00"/>
      </g>
    </g>
    <path id="Path_6" data-name="Path 6" d="M525.545,2647.748l-2.823-26.079c-.573-4.806-.927-8.823-1.035-12.037a91.805,91.805,0,0,1-2.939,12.815l-7.536,25.3H497.143l-7.549-25.3a97.516,97.516,0,0,1-2.971-12.815c-.178,2.7-.5,6.718-.993,12.037l-2.865,26.079H459.577l11.235-65.8h24.4l4.676,16.274c.059.182.269.939.624,2.3a114.579,114.579,0,0,1,3.694,16.94h.351a117.793,117.793,0,0,1,4.548-19.51l4.852-16h24.4l10.435,65.8Z" fill="#ffcd00"/>
    <path id="Path_7" data-name="Path 7" d="M582.593,2623.843h9.89l-2.071-7.459a69.488,69.488,0,0,1-2.65-14.483h-.448a68.2,68.2,0,0,1-2.7,14.483Zm-31.37,23.905,23.466-65.8h26.328l23.017,65.8h-25.4l-2.1-8.267H578.649l-2.037,8.267Z" fill="#ffcd00"/>
    <rect id="Rectangle_5" data-name="Rectangle 5" width="24.053" height="65.8" transform="translate(628.117 2581.948)" fill="#ffcd00"/>
    <path id="Path_8" data-name="Path 8" d="M719.934,2623.843h9.881l-2.079-7.459a69.8,69.8,0,0,1-2.642-14.483h-.456a68.365,68.365,0,0,1-2.693,14.483Zm-31.378,23.905,23.462-65.8h26.325l23.015,65.8h-25.4l-2.1-8.267H715.973l-2.028,8.267Z" fill="#a8aaac"/>
    <path id="Path_9" data-name="Path 9" d="M788.463,2627.7c4.959-.088,8.659-.99,11.048-2.692,2.874-2.015,4.323-5.374,4.323-10.12q0-12.708-14.341-12.707h-1.03Zm-23.471,20.047v-65.8h19.156q18.192,0,26.064,4.14,17.649,9.306,17.655,28.8,0,19.35-17.655,28.725-7.732,4.141-27.829,4.134Z" fill="#a8aaac"/>
    <path id="Path_10" data-name="Path 10" d="M851.912,2647.748l-25.114-65.8H852.36l7.011,23.826c1.98,6.8,3.061,11.973,3.243,15.55h.448a95.56,95.56,0,0,1,3.419-15.016l7.359-24.36h25.122l-25.034,65.8Z" fill="#a8aaac"/>
    <path id="Path_11" data-name="Path 11" d="M901.838,2647.748v-65.8h44v17.845H925.034v6.341H943.9v16.861H925.034v6.908h21.343v17.845Z" fill="#a8aaac"/>
    <path id="Path_12" data-name="Path 12" d="M979.145,2598.888v12.857h3.677q7.03,0,7.021-6.343a6.286,6.286,0,0,0-1.75-4.849,7.42,7.42,0,0,0-5.271-1.665Zm-23.182,48.86v-65.8H985.7q12.055,0,18.829,4.951,7.746,5.626,7.743,17.21a18.9,18.9,0,0,1-3.442,11.612,12.7,12.7,0,0,1-9.229,5.232l17.57,26.8H990.649l-11.5-21.712v21.712Z" fill="#a8aaac"/>
    <path id="Path_13" data-name="Path 13" d="M1028.656,2647.748v-44.27H1015.5v-21.531h49.964v21.531h-13.156v44.27Z" fill="#a8aaac"/>
    <rect id="Rectangle_6" data-name="Rectangle 6" width="24.036" height="65.8" transform="translate(1073.564 2581.948)" fill="#a8aaac"/>
    <path id="Path_14" data-name="Path 14" d="M1104.393,2642.124l7.541-18.427q10.125,6.843,16.5,6.834c3.475,0,5.206-1.135,5.206-3.424,0-1.824-2.324-3.22-6.957-4.213-.927-.182-2.108-.411-3.512-.724q-15.2-3.672-15.19-17.794,0-11.316,8.284-17.839,7.623-6.069,19.222-6.06a45.632,45.632,0,0,1,22.206,5.972l-7.192,17.209a34.864,34.864,0,0,0-6.827-3.867,18.532,18.532,0,0,0-6.712-1.288c-3.43,0-5.161,1.044-5.161,3.135,0,1.833,3.28,3.439,9.848,4.852.627.145,1.438.349,2.423.584a18.822,18.822,0,0,1,10.608,6.205,17.1,17.1,0,0,1,4,11.462q0,11.588-8.551,18.517-7.895,6.226-19.894,6.242-13.044,0-25.846-7.376" fill="#a8aaac"/>
    <rect id="Rectangle_7" data-name="Rectangle 7" width="24.041" height="65.8" transform="translate(1167.046 2581.948)" fill="#a8aaac"/>
    <path id="Path_15" data-name="Path 15" d="M1203.846,2647.748v-65.8h23.193l20.439,34.437a75.929,75.929,0,0,1-.758-12.364v-22.073h22.842v65.8H1246.19l-20.226-34.164a61.95,61.95,0,0,1,.709,10.44v23.724Z" fill="#a8aaac"/>
    <path id="Path_16" data-name="Path 16" d="M1323.483,2624.2H1313.2v-15.456h36.348c.066.78.122,1.787.182,3v1.759q0,11.414-4.222,18.606a34.361,34.361,0,0,1-13.028,12.917,36.43,36.43,0,0,1-18.021,4.471q-15.192,0-25.173-9.793t-9.97-24.726q0-14.733,9.882-24.628t25.261-9.876q20.709,0,30.817,17.391l-21.071,7.805a10.215,10.215,0,0,0-9.349-5.425,9.966,9.966,0,0,0-8.854,4.622,17.9,17.9,0,0,0-2.641,10.111c0,4.287.9,7.72,2.729,10.3,2.1,2.9,5.206,4.366,9.308,4.366,4.855,0,7.547-1.824,8.089-5.444" fill="#a8aaac"/>
  </g>
</svg>
